      <svg width="80" height="80" version="1.1" xmlns="http://www.w3.org/2000/svg" xmlns:xlink="http://www.w3.org/1999/xlink" class="thumbnail-icon" viewBox="0 0 200 200"><g data-paper-data="{&quot;fillRule&quot;:&quot;nonzero&quot;,&quot;isIcon&quot;:true,&quot;iconStyle&quot;:&quot;standalone&quot;,&quot;selectedEffects&quot;:{&quot;container&quot;:&quot;circle_simple_filled&quot;,&quot;transformation&quot;:&quot;&quot;,&quot;pattern&quot;:&quot;&quot;},&quot;bounds&quot;:{&quot;x&quot;:205.59279796466436,&quot;y&quot;:115,&quot;width&quot;:138.81440407067132,&quot;height&quot;:138.81440407067132},&quot;iconType&quot;:&quot;icon&quot;,&quot;rawIconId&quot;:&quot;23573&quot;,&quot;isDetailed&quot;:true,&quot;blockLetter&quot;:&quot;O&quot;,&quot;blockLetterId&quot;:0,&quot;relativeBoundsIconToContainer&quot;:{&quot;top&quot;:0.013729823999380587,&quot;left&quot;:-0.004252238085525987},&quot;widthRatioIconToContainer&quot;:0.7890939174230382,&quot;heightRatioIconToContainer&quot;:0.6195027601484837}"><path d="M0,100c0,-55.22847 44.77153,-100 100,-100c55.22847,0 100,44.77153 100,100c0,55.22847 -44.77153,100 -100,100c-55.22847,0 -100,-44.77153 -100,-100zM159.16961,40.79569l0.63815,0.01891l-6.32849,0.19173c0,0 -0.85569,1.70151 -1.03835,2.89454c-0.18266,1.19138 0,2.17049 0,2.17049l0.0181,0.01481c2.44036,0.44759 8.09285,1.16012 14.78533,-0.10202c0.03291,-0.20734 0.14646,-1.04328 -0.01481,-2.08328c-0.18266,-1.19303 -1.03835,-2.89454 -1.03835,-2.89454l-6.32849,-0.19167l0.63979,-0.01895zM73.45749,41.32885l0.66645,0.01974l-6.35514,0.19417c0,0 -0.85569,1.70151 -1.03835,2.89289c-0.17608,1.1486 -0.01645,2.07834 -0.00329,2.14581c2.2939,0.43772 7.99247,1.221 14.80014,-0.02797c0.02304,-0.13658 0.16127,-1.0186 -0.00823,-2.11783c-0.18266,-1.19138 -1.03835,-2.89289 -1.03835,-2.89289l-6.35678,-0.19417l0.66645,-0.01974zM114.53882,41.32885l0.66645,0.01974l-6.35514,0.19417c0,0 -0.85569,1.70151 -1.03835,2.89289c-0.17493,1.143 -0.01678,2.0683 -0.00346,2.14614l0.00017,0.00132c2.29555,0.43772 7.99247,1.221 14.80014,-0.02962c0.02304,-0.13658 0.16127,-1.0186 -0.00823,-2.11783c-0.18266,-1.19138 -1.03835,-2.89289 -1.03835,-2.89289l-6.35678,-0.19417l0.66809,-0.01974zM47.95959,42.76707l0.66632,0.01974l-6.35501,0.19253c0,0 -0.85569,1.70151 -1.03835,2.89454c-0.17344,1.13181 -0.01942,2.04938 -0.00395,2.14218l0.00065,0.00362c2.2939,0.43772 7.99247,1.21936 14.80014,-0.02797h-0.00001c0.02304,-0.13658 0.16127,-1.0186 -0.00823,-2.11783c-0.18266,-1.19303 -1.03835,-2.89454 -1.03835,-2.89454l-6.35665,-0.19253l0.66796,-0.01974zM48.62591,42.78681h0.00013h0.00013h-0.00013zM94.44821,42.76707l0.66467,0.01974l-6.35501,0.19253c0,0 -0.85569,1.70151 -1.03835,2.89454c-0.17608,1.1486 -0.01645,2.07669 -0.00329,2.14581c2.2939,0.43772 7.99411,1.21936 14.80178,-0.02797c0.02468,-0.13658 0.16127,-1.0186 -0.00823,-2.11783c-0.18266,-1.19303 -1.03835,-2.89454 -1.03835,-2.89454l-6.3583,-0.19253l0.66796,-0.01974zM95.11288,42.78681h0.00013h0.00013h-0.00013zM136.24371,42.78681l0.66645,0.01974l-6.35514,0.19253c0,0 -0.85569,1.70151 -1.03835,2.89454c-0.17393,1.13494 -0.02024,2.05464 -0.00543,2.14301l0.0005,0.0028c2.29555,0.43772 7.99411,1.221 14.80178,-0.02797c0.02468,-0.13658 0.16127,-1.0186 -0.00823,-2.11783c-0.18266,-1.19303 -1.03835,-2.89454 -1.03835,-2.89454l-6.35678,-0.19253l0.66645,-0.01974zM151.21828,54.28925l-0.54962,7.19273l-0.54797,8.72639c0,0 -2.99327,3.95757 -3.17757,4.46768c-0.18266,0.51177 -2.38112,3.32074 -2.38112,3.32074c0,0 -1.45138,3.23023 -1.77556,7.17956l33.52164,-3.51327c-0.53152,-2.18201 -1.19961,-3.6663 -1.19961,-3.6663c0,0 -2.20011,-2.81061 -2.38276,-3.32074c-0.02633,-0.07405 -0.1267,-0.24025 -0.25671,-0.44266v-21.79047l-0.87709,-0.08228c-1.16835,-0.11025 -2.38276,-0.2024 -3.60377,-0.28962l-1.1848,-5.65742l0.15469,-0.12341c-2.67403,0.4805 -5.18679,0.66809 -7.37868,0.66809c-2.89783,0 -5.223,-0.29126 -6.70893,-0.54303l-1.07455,5.1325l-0.40497,1.92036l0.40333,-1.92036c-2.38605,0.00658 -4.80174,0.04772 -7.23387,0.11683c-5.10287,0.14317 -10.27979,0.41304 -15.46495,0.78822c-1.89404,0.13494 -3.78643,0.28797 -5.67388,0.44924l0.39822,1.90391c9.26613,-0.78493 18.60302,-1.28353 27.56801,-1.32303zM65.03554,60.99323c-2.65099,0.48873 -5.1078,0.95607 -7.32602,1.38885c-8.2064,1.60278 -13.24015,2.7415 -13.41129,2.77935l-0.74873,0.16949v21.59299l-0.00165,-0.00033v-21.59267l0.75037,-0.17114c0.17114,-0.03949 5.2049,-1.17822 13.41129,-2.77935l-0.46898,-6.11983l-1.64885,-7.87564l0.10202,-0.08228c-2.58846,0.44923 -5.02224,0.62531 -7.15159,0.62531c-3.0377,0 -5.45996,-0.32089 -6.92944,-0.57923l0.04443,0.0362l-1.64885,7.87564l-0.54962,7.19273l-0.54797,8.72639c0,0 -2.99327,3.95756 -3.17757,4.46768c-0.08557,0.24025 -0.61709,0.98898 -1.15683,1.71467l-0.00033,0.0005l-13.48008,3.19024l-0.85569,-0.20569v60.91687l48.15064,21.8168l0.00329,0.27974l0.45911,-0.07076l0.89518,0.40645l-0.00165,-0.53974l106.43627,-16.05899l0.71253,-0.10696l1.16341,-66.50847l-1.75087,0.18266l-33.52164,3.51327l-10.49207,1.09923c-0.2205,-4.20275 -1.81669,-7.74564 -1.81669,-7.74564c0,0 -2.19846,-2.81061 -2.38112,-3.32074c-0.18265,-0.51177 -3.17592,-4.46768 -3.17592,-4.46768l-0.07734,-1.22923l-0.12177,-1.93846l-0.3505,-5.56033l-0.26329,-3.44086c0.09709,0 0.19747,-0.00658 0.2962,-0.00658c1.33291,0 2.55555,0.02961 3.70892,0.07405l-0.37009,4.83135l-0.22544,3.61858c2.56048,-0.48215 4.9235,-1.03505 6.98045,-1.65214c5.72604,-1.71615 6.95248,-3.25179 6.95166,-3.7285c0.00378,0.47491 -1.21738,2.01202 -6.95166,3.73015c-2.05695,0.61709 -4.42161,1.17 -6.98045,1.65214c-0.90835,0.17113 -1.83973,0.3324 -2.79416,0.48214l0.12177,1.93846c3.80617,-0.59899 7.2964,-1.34772 10.20739,-2.2215c5.77426,-1.72948 8.49601,-3.612 8.32323,-5.75616c-0.35873,-4.42326 -13.38661,-4.90211 -18.97162,-4.90211c-0.14646,0 -0.29949,0.00987 -0.44266,0.00987l-0.13987,-1.82163l-0.00329,-0.01481l-0.39822,-1.90391l-1.24898,-5.95527l0.10367,-0.08063c-2.58846,0.44759 -5.02388,0.62531 -7.15324,0.62531c-3.0377,0 -5.45831,-0.32089 -6.93109,-0.57923l0.04443,0.03455l-1.60278,7.67817v0.00002c-1.06253,0.1267 -2.11042,0.25819 -3.15979,0.38819l-1.39017,-6.62979l0.10202,-0.08228c-2.58682,0.44923 -5.02224,0.62531 -7.15159,0.62531c-3.03605,0 -5.45831,-0.32089 -6.92779,-0.57923l0.04443,0.0362l-1.64885,7.87564l-0.0854,1.12687l-0.00181,0.00033c-1.16012,0.17772 -2.30362,0.35544 -3.43411,0.53481l-0.00017,-0.00165l-0.23696,-3.10023l-1.64885,-7.87564l0.10202,-0.08063c-2.58846,0.44759 -5.02224,0.62531 -7.15159,0.62531c-3.0377,0 -5.45831,-0.32089 -6.92779,-0.57923l0.04443,0.03455l-1.64885,7.87564l-0.47227,6.16919l-0.07734,1.02353l-0.06204,0.93599l0.05875,-0.9327zM106.63191,54.6266l-0.00029,0.00133l0.00028,-0.00133zM106.63162,54.62793l-0.04085,0.19448l-0.13583,1.76249l0.13419,-1.76248zM106.45419,56.59469h-0.00001v-0.00002l0.00075,-0.00977zM106.45419,56.59469l-0.10696,1.39871l-0.15139,1.98125l-0.15633,2.04049l-0.4443,7.04463c-0.32862,-0.00165 -0.64407,-0.00658 -0.96117,-0.01152l-0.35363,-5.59325l-0.23861,-3.12656c-3.00643,0.52822 -5.76603,1.15518 -8.12905,1.86277c-5.80881,1.74099 -6.98703,3.29605 -6.94919,3.74857c0.02995,0.3719 0.688,0.91164 2.1825,1.43805c-1.49565,-0.52658 -2.1542,-1.06697 -2.18415,-1.43969c-0.0362,-0.45252 1.14037,-2.00757 6.94919,-3.74857c2.36302,-0.70759 5.12262,-1.33454 8.12905,-1.86277c0.70266,-0.12341 1.42177,-0.24025 2.15404,-0.35215l0.15139,-1.98125c-4.11554,0.61709 -7.87729,1.41189 -10.98903,2.34492c-5.77261,1.73112 -8.49436,3.61364 -8.32158,5.75616c0.34228,4.25048 12.3713,4.85604 18.26898,4.89718c-0.64341,0.85404 -2.83364,3.78314 -2.98833,4.21921c-0.18265,0.51013 -2.38276,3.32074 -2.38276,3.32074c0,0 -2.01416,4.46933 -1.8315,9.32208c0.01975,0.49696 0.03291,1.1848 0.04443,2.001l-6.96729,0.73046c0.01152,-1.1486 0.02961,-2.09298 0.05266,-2.73311c0.18266,-4.85275 -1.8315,-9.32208 -1.8315,-9.32208c0,0 -2.2001,-2.81061 -2.38276,-3.32074c-0.18266,-0.51177 -3.17757,-4.46768 -3.17757,-4.46768l-0.54797,-8.72803l-0.16439,-2.15897c7.24374,-1.14696 15.12908,-2.27416 23.32724,-3.25985zM143.87746,48.40474l0.10202,-0.08063c-2.58846,0.44924 -5.02388,0.62531 -7.15324,0.62531c-3.0377,0 -5.45831,-0.32089 -6.92779,-0.57923l0.04278,0.03455l-0.8491,4.04643c5.18515,-0.37519 10.36371,-0.64341 15.46495,-0.78822zM170.53547,54.20533v17.31948c-0.54797,-0.7405 -0.98569,-1.31809 -0.98569,-1.31809l-0.54962,-8.72639l-0.54797,-7.19108l-0.05101,-0.24519c0.71253,0.05266 1.44151,0.09873 2.13429,0.16127zM45.48302,66.87777c2.24125,-0.49696 9.34183,-2.03226 19.41412,-3.89503l-0.48692,7.7588c0,0 -2.99327,3.95757 -3.17757,4.46768c-0.18266,0.51013 -2.38276,3.32074 -2.38276,3.32074c0,0 -2.0158,4.46933 -1.8315,9.32208c0.02139,0.55784 0.0362,1.351 0.04937,2.30378l11.63573,2.78264l20.35076,-2.13066l-20.35076,2.13231l-11.63573,-2.78264l-11.58472,-2.77277zM24.77863,82.43322l8.37424,-1.98125c-0.26656,0.67632 -0.75031,2.01894 -1.12384,3.71534zM21.94662,141.16314v-57.65209l45.84521,10.96599l0.24025,67.5715zM69.97549,150.19725l-0.47556,-55.62805l94.44016,-9.89473zM176.05467,98.71929l-0.83923,47.80179l-79.75521,12.03396z" fill="red"></path></g></svg>

